<mxfile host="app.diagrams.net" modified="2022-08-01T21:00:48.264Z" agent="5.0 (Windows NT 10.0; Win64; x64) AppleWebKit/537.36 (KHTML, like Gecko) Chrome/103.0.0.0 Safari/537.36" etag="_Ht8RbZyQ5YPEctDzXr_" version="20.2.2" type="github">
  <diagram id="C5RBs43oDa-KdzZeNtuy" name="Page-1">
    <mxGraphModel dx="1185" dy="588" grid="1" gridSize="10" guides="1" tooltips="1" connect="1" arrows="1" fold="1" page="1" pageScale="1" pageWidth="827" pageHeight="1169" math="0" shadow="0">
      <root>
        <mxCell id="WIyWlLk6GJQsqaUBKTNV-0" />
        <mxCell id="WIyWlLk6GJQsqaUBKTNV-1" parent="WIyWlLk6GJQsqaUBKTNV-0" />
        <mxCell id="UpRPRYTAU72SpmkZn0lf-0" value="" style="rounded=0;whiteSpace=wrap;html=1;" vertex="1" parent="WIyWlLk6GJQsqaUBKTNV-1">
          <mxGeometry x="40" y="40" width="760" height="400" as="geometry" />
        </mxCell>
        <mxCell id="UpRPRYTAU72SpmkZn0lf-1" value="" style="rounded=0;whiteSpace=wrap;html=1;" vertex="1" parent="WIyWlLk6GJQsqaUBKTNV-1">
          <mxGeometry x="60" y="50" width="720" height="100" as="geometry" />
        </mxCell>
        <mxCell id="UpRPRYTAU72SpmkZn0lf-2" value="&lt;font style=&quot;font-size: 36px;&quot;&gt;Magic Kingdom Wait Times&lt;/font&gt;" style="text;html=1;strokeColor=none;fillColor=none;align=center;verticalAlign=middle;whiteSpace=wrap;rounded=0;" vertex="1" parent="WIyWlLk6GJQsqaUBKTNV-1">
          <mxGeometry x="70" y="60" width="680" height="80" as="geometry" />
        </mxCell>
        <mxCell id="UpRPRYTAU72SpmkZn0lf-3" value="&lt;font size=&quot;3&quot;&gt;Enter Here&lt;/font&gt;" style="rounded=1;whiteSpace=wrap;html=1;fontSize=36;arcSize=20;" vertex="1" parent="WIyWlLk6GJQsqaUBKTNV-1">
          <mxGeometry x="348" y="220" width="124" height="60" as="geometry" />
        </mxCell>
        <mxCell id="UpRPRYTAU72SpmkZn0lf-4" value="" style="shape=flexArrow;endArrow=classic;html=1;rounded=0;fontSize=10;endWidth=21.666666666666668;endSize=11.275;width=46.66666666666667;" edge="1" parent="WIyWlLk6GJQsqaUBKTNV-1">
          <mxGeometry width="50" height="50" relative="1" as="geometry">
            <mxPoint x="419.58" y="460" as="sourcePoint" />
            <mxPoint x="419.58" y="530" as="targetPoint" />
          </mxGeometry>
        </mxCell>
        <mxCell id="UpRPRYTAU72SpmkZn0lf-6" value="" style="rounded=0;whiteSpace=wrap;html=1;" vertex="1" parent="WIyWlLk6GJQsqaUBKTNV-1">
          <mxGeometry x="40" y="540" width="760" height="400" as="geometry" />
        </mxCell>
        <mxCell id="UpRPRYTAU72SpmkZn0lf-7" value="&lt;font size=&quot;3&quot;&gt;Bubble map showing wait times for date selected&lt;/font&gt;" style="rounded=1;whiteSpace=wrap;html=1;fontSize=10;" vertex="1" parent="WIyWlLk6GJQsqaUBKTNV-1">
          <mxGeometry x="50" y="670" width="410" height="260" as="geometry" />
        </mxCell>
        <mxCell id="UpRPRYTAU72SpmkZn0lf-8" value="&lt;font size=&quot;3&quot;&gt;Text entry box&lt;/font&gt;" style="rounded=1;whiteSpace=wrap;html=1;fontSize=24;" vertex="1" parent="WIyWlLk6GJQsqaUBKTNV-1">
          <mxGeometry x="330" y="615" width="180" height="30" as="geometry" />
        </mxCell>
        <mxCell id="UpRPRYTAU72SpmkZn0lf-9" value="Please enter date to view historical wait times." style="text;html=1;strokeColor=none;fillColor=none;align=center;verticalAlign=middle;whiteSpace=wrap;rounded=0;fontSize=12;" vertex="1" parent="WIyWlLk6GJQsqaUBKTNV-1">
          <mxGeometry x="324" y="570" width="180" height="30" as="geometry" />
        </mxCell>
        <mxCell id="UpRPRYTAU72SpmkZn0lf-10" value="&lt;font size=&quot;3&quot;&gt;Precipitation gauge&lt;/font&gt;" style="rounded=1;whiteSpace=wrap;html=1;fontSize=12;" vertex="1" parent="WIyWlLk6GJQsqaUBKTNV-1">
          <mxGeometry x="500" y="670" width="240" height="110" as="geometry" />
        </mxCell>
        <mxCell id="UpRPRYTAU72SpmkZn0lf-11" value="&lt;font size=&quot;3&quot;&gt;Historical average temperature&lt;/font&gt;" style="rounded=1;whiteSpace=wrap;html=1;fontSize=18;" vertex="1" parent="WIyWlLk6GJQsqaUBKTNV-1">
          <mxGeometry x="500" y="810" width="240" height="110" as="geometry" />
        </mxCell>
      </root>
    </mxGraphModel>
  </diagram>
</mxfile>
